<?xml version="1.0" encoding="UTF-8" standalone="no"?>
<!DOCTYPE svg PUBLIC "-//W3C//DTD SVG 1.1//EN" "http://www.w3.org/Graphics/SVG/1.1/DTD/svg11.dtd">
<svg version="1.1" xmlns="http://www.w3.org/2000/svg" xmlns:xlink="http://www.w3.org/1999/xlink" preserveAspectRatio="xMidYMid meet" viewBox="0 0 640 640" width="640" height="640"><defs><path d="M640 603.46C640 626.57 621.25 645.32 598.13 645.32C542.5 645.32 97.49 645.32 41.86 645.32C18.74 645.32 0 626.57 0 603.46C0 563.31 0 242.09 0 201.93C0 178.81 18.74 160.07 41.86 160.07C97.49 160.07 542.5 160.07 598.13 160.07C621.25 160.07 640 178.81 640 201.93C640 282.24 640 563.31 640 603.46Z" id="c1brH2i865"></path><path d="M640 184.97L0 184.97C0 145.53 0 123.62 0 119.24C0 96.11 18.74 77.38 41.86 77.38C97.49 77.38 542.5 77.38 598.13 77.38C621.25 77.37 640 96.11 640 119.24C640 128 640 149.91 640 184.97Z" id="b2aqtciy3E"></path><path d="M66.69 108.56C54.78 108.56 45.13 118.21 45.13 130.12C45.13 142.02 54.78 151.68 66.69 151.68C78.6 151.68 88.25 142.02 88.25 130.12C88.25 118.21 78.6 108.56 66.69 108.56Z" id="feC01U016"></path><path d="M139.29 108.56C127.38 108.56 117.73 118.21 117.73 130.12C117.73 142.02 127.38 151.68 139.29 151.68C151.19 151.68 160.84 142.02 160.84 130.12C160.84 118.21 151.19 108.56 139.29 108.56Z" id="bTZifYU"></path><path d="M211.87 108.56C199.96 108.56 190.31 118.21 190.31 130.12C190.31 142.02 199.96 151.68 211.87 151.68C223.77 151.68 233.43 142.02 233.43 130.12C233.43 118.21 223.77 108.56 211.87 108.56Z" id="b2mKAGE5dH"></path><path d="M79.52 426C72.23 426 66.69 421.04 66.69 412.59C66.69 410.25 105.17 269.15 105.17 269.15C108.67 261.86 115.08 259.24 121.2 259.24C127.91 259.24 144.73 263.76 144.73 272.51C144.73 273.97 144.8 277.02 143.92 278.77C142.02 286.23 132.5 323.55 115.38 390.72L149.49 390.72C149.49 372.35 149.49 362.15 149.49 360.11C149.49 351.65 159.11 348.16 168.44 348.16C178.06 348.16 187.39 351.66 187.39 360.11C187.39 362.15 187.39 372.35 187.39 390.72C195.61 390.72 200.17 390.72 201.09 390.72C208.96 390.72 213.04 399.47 213.04 408.5C213.04 417.25 207.21 425.99 201.09 425.99C200.17 425.99 195.61 425.99 187.39 425.99C187.39 446.63 187.39 458.1 187.39 460.4C187.39 468.27 178.06 472.35 168.44 472.35C159.11 472.35 149.49 468.27 149.49 460.4C149.49 458.1 149.49 446.64 149.49 426L149.49 426C107.51 426 84.18 426 79.52 426Z" id="a3lI3Z9JUv"></path><path d="M437.47 426C430.18 426 424.64 421.04 424.64 412.59C424.64 410.25 463.12 269.15 463.12 269.15C466.62 261.86 473.03 259.24 479.16 259.24C485.86 259.24 502.68 263.76 502.68 272.51C502.68 273.97 502.75 277.02 501.87 278.77C499.97 286.23 490.45 323.55 473.33 390.72L507.44 390.72C507.44 372.35 507.44 362.15 507.44 360.11C507.44 351.65 517.06 348.16 526.39 348.16C536.01 348.16 545.34 351.66 545.34 360.11C545.34 362.15 545.34 372.35 545.34 390.72C553.56 390.72 558.13 390.72 559.04 390.72C566.91 390.72 570.99 399.47 570.99 408.5C570.99 417.25 565.16 425.99 559.04 425.99C558.13 425.99 553.56 425.99 545.34 425.99C545.34 446.63 545.34 458.1 545.34 460.4C545.34 468.27 536.01 472.35 526.39 472.35C517.06 472.35 507.44 468.27 507.44 460.4C507.44 458.1 507.44 446.64 507.44 426L507.44 426C465.46 426 442.13 426 437.47 426Z" id="e15sCjJs25"></path><path d="M248.65 326C248.65 277.31 278.38 259.24 316.87 259.24C355.35 259.24 385.38 277.31 385.38 326C385.38 334.13 385.38 399.2 385.38 407.34C385.38 456.02 355.35 474.1 316.87 474.1C278.38 474.1 248.65 456.02 248.65 407.34C248.65 391.07 248.65 334.13 248.65 326ZM316.87 292.47C297.63 292.47 286.55 302.97 286.55 326C286.55 334.13 286.55 399.2 286.55 407.34C286.55 430.37 297.63 440.86 316.87 440.86C335.82 440.86 347.48 430.37 347.48 407.34C347.48 401.92 347.48 374.8 347.48 326C339.7 303.65 329.5 292.47 316.87 292.47Z" id="f2kFZHtYTW"></path></defs><g><g><g><use xlink:href="#c1brH2i865" opacity="1" fill="#212121" fill-opacity="1"></use><g><use xlink:href="#c1brH2i865" opacity="1" fill-opacity="0" stroke="#000000" stroke-width="1" stroke-opacity="0"></use></g></g><g><use xlink:href="#b2aqtciy3E" opacity="1" fill="#eaeaea" fill-opacity="1"></use><g><use xlink:href="#b2aqtciy3E" opacity="1" fill-opacity="0" stroke="#000000" stroke-width="1" stroke-opacity="0"></use></g></g><g><use xlink:href="#feC01U016" opacity="1" fill="#00e17b" fill-opacity="1"></use><g><use xlink:href="#feC01U016" opacity="1" fill-opacity="0" stroke="#000000" stroke-width="1" stroke-opacity="0"></use></g></g><g><use xlink:href="#bTZifYU" opacity="1" fill="#00e17b" fill-opacity="1"></use><g><use xlink:href="#bTZifYU" opacity="1" fill-opacity="0" stroke="#000000" stroke-width="1" stroke-opacity="0"></use></g></g><g><use xlink:href="#b2mKAGE5dH" opacity="1" fill="#00e17b" fill-opacity="1"></use><g><use xlink:href="#b2mKAGE5dH" opacity="1" fill-opacity="0" stroke="#000000" stroke-width="1" stroke-opacity="0"></use></g></g><g><use xlink:href="#a3lI3Z9JUv" opacity="1" fill="#80d8ff" fill-opacity="1"></use><g><use xlink:href="#a3lI3Z9JUv" opacity="1" fill-opacity="0" stroke="#000000" stroke-width="1" stroke-opacity="0"></use></g></g><g><use xlink:href="#e15sCjJs25" opacity="1" fill="#80d8ff" fill-opacity="1"></use><g><use xlink:href="#e15sCjJs25" opacity="1" fill-opacity="0" stroke="#000000" stroke-width="1" stroke-opacity="0"></use></g></g><g><use xlink:href="#f2kFZHtYTW" opacity="1" fill="#80d8ff" fill-opacity="1"></use><g><use xlink:href="#f2kFZHtYTW" opacity="1" fill-opacity="0" stroke="#000000" stroke-width="1" stroke-opacity="0"></use></g></g></g></g></svg>