<svg height="511pt" viewBox="0 0 511 511.93679" width="511pt" xmlns="http://www.w3.org/2000/svg"><path d="m350.335938 426.511719h68.265624v42.667969c0 4.710937-3.820312 8.535156-8.53125 8.535156h-51.203124c-4.710938 0-8.53125-3.824219-8.53125-8.535156zm0 0" fill="#b2cdf8"/><path d="m435.667969 241.167969v185.34375c-.027344 9.414062-7.652344 17.039062-17.066407 17.066406h-341.332031v-290.132813c.027344-9.414062 7.652344-17.039062 17.066407-17.066406h169.640624zm0 0" fill="#b2cdf8"/><path d="m410.070312 241.167969v185.34375c-.03125 9.414062-7.65625 17.039062-17.070312 17.066406h-315.730469v-290.132813c.027344-9.414062 7.652344-17.039062 17.066407-17.066406h162.132812zm0 0" fill="#e7ebf4"/><path d="m111.402344 409.445312v-238.933593h163.414062l126.71875 93.183593v145.75h-92.246094" fill="#e7ebf4"/><path d="m188.203125 298.511719c-23.566406 0-42.667969-19.101563-42.667969-42.664063 0-23.566406 19.101563-42.667968 42.667969-42.667968 23.5625 0 42.664063 19.101562 42.664063 42.667968-.027344 23.550782-19.113282 42.636719-42.664063 42.664063zm0-68.265625c-10.355469 0-19.691406 6.238281-23.652344 15.804687-3.960937 9.566407-1.773437 20.574219 5.550781 27.898438 7.320313 7.320312 18.332032 9.511719 27.898438 5.546875 9.566406-3.960938 15.800781-13.296875 15.800781-23.648438 0-14.140625-11.460937-25.601562-25.597656-25.601562zm0 0" fill="#f0f3f4"/><path d="m299.136719 213.949219v16.296875c0 4.714844-3.820313 8.535156-8.535157 8.535156h-17.066406c-4.714844 0-8.535156-3.820312-8.535156-8.535156v-17.066406c0-4.710938 3.820312-8.535157 8.535156-8.535157h17.066406c.78125-.015625 1.5625.097657 2.304688.34375" fill="#e7ebf4"/><path d="m273.535156 264.378906h17.066406c4.714844 0 8.535157 3.820313 8.535157 8.535156v17.066407c0 4.710937-3.820313 8.53125-8.535157 8.53125h-17.066406c-4.714844 0-8.535156-3.820313-8.535156-8.53125v-17.066407c0-4.714843 3.820312-8.535156 8.535156-8.535156zm0 0" fill="#e7ebf4"/><path d="m364.074219 266.171875c2.109375 1.597656 3.339843 4.09375 3.328125 6.742187v17.066407c0 4.710937-3.820313 8.53125-8.535156 8.53125h-17.066407c-4.710937 0-8.53125-3.820313-8.53125-8.53125v-17.066407c0-4.714843 3.820313-8.535156 8.53125-8.535156h17.066407c.574218.011719 1.144531.066406 1.707031.171875" fill="#e7ebf4"/><path d="m273.535156 324.113281h17.066406c4.714844 0 8.535157 3.820313 8.535157 8.53125v17.070313c0 4.710937-3.820313 8.53125-8.535157 8.53125h-17.066406c-4.714844 0-8.535156-3.820313-8.535156-8.53125v-17.070313c0-4.710937 3.820312-8.53125 8.535156-8.53125zm0 0" fill="#e7ebf4"/><path d="m341.800781 324.113281h17.066407c4.714843 0 8.535156 3.820313 8.535156 8.53125v17.070313c0 4.710937-3.820313 8.53125-8.535156 8.53125h-17.066407c-4.710937 0-8.53125-3.820313-8.53125-8.53125v-17.070313c0-4.710937 3.820313-8.53125 8.53125-8.53125zm0 0" fill="#e7ebf4"/><path d="m380.203125 272.914062c-4.4375-1.621093-8.707031-3.328124-12.800781-5.207031-127.828125-56.488281-110.082032-216.660156-110.082032-216.660156s73.21875 0 110.082032-29.097656c4.964844-3.808594 9.289062-8.390625 12.800781-13.570313 28.328125 42.667969 122.878906 42.667969 122.878906 42.667969s18.945313 170.667969-122.878906 221.867187zm0 0" fill="#b2cdf8"/><path d="m367.402344 267.707031c-127.828125-56.488281-110.082032-216.660156-110.082032-216.660156s81.75-5.035156 118.613282-34.132813c36.867187 29.097657 101.546875 34.132813 101.546875 34.132813s17.75 160.171875-110.078125 216.660156zm0 0" fill="#e7ebf4"/><path d="m213.800781 349.714844v136.53125c0 3.074218-2.472656 6.058594-6.910156 8.535156-13.886719 6.28125-29.0625 9.207031-44.289063 8.53125-4.4375 0-8.617187-.171875-12.714843-.511719-22.101563-1.878906-38.484375-8.617187-38.484375-16.554687v-136.53125zm0 0" fill="#b2cdf8"/><path d="m188.203125 349.714844v136.53125c0 3.074218-2.476563 6.058594-6.914063 8.535156-9.820312 4.761719-20.5 7.492188-31.402343 8.019531-22.101563-1.878906-38.484375-8.617187-38.484375-16.554687v-136.53125zm0 0" fill="#e7ebf4"/><path d="m111.402344 417.980469v68.265625c0 9.386718-22.957032 17.066406-51.199219 17.066406-4.4375 0-8.789063-.171875-12.886719-.511719-10.902344-.527343-21.582031-3.257812-31.402344-8.019531-4.4375-2.476562-6.914062-5.460938-6.914062-8.535156v-68.265625zm0 0" fill="#b2cdf8"/><path d="m85.800781 417.980469v68.265625c0 7.9375-16.382812 14.675781-38.484375 16.554687-10.902344-.527343-21.582031-3.257812-31.402344-8.019531-4.4375-2.476562-6.914062-5.460938-6.914062-8.535156v-68.265625zm0 0" fill="#e7ebf4"/><path d="m213.800781 349.714844c0-9.425782-22.921875-17.070313-51.199219-17.070313-28.277343 0-51.199218 7.644531-51.199218 17.070313 0 9.425781 22.921875 17.066406 51.199218 17.066406 28.277344 0 51.199219-7.640625 51.199219-17.066406zm0 0" fill="#b2cdf8"/><path d="m111.402344 417.980469c0-9.425781-22.921875-17.066407-51.199219-17.066407s-51.203125 7.640626-51.203125 17.066407 22.925781 17.066406 51.203125 17.066406 51.199219-7.640625 51.199219-17.066406zm0 0" fill="#b2cdf8"/><path d="m316.203125 417.980469v68.265625c0 9.386718-22.957031 17.066406-51.203125 17.066406-4.4375 0-8.789062-.171875-12.882812-.511719-10.902344-.527343-21.582032-3.257812-31.402344-8.019531-4.4375-2.476562-6.914063-5.460938-6.914063-8.535156v-68.265625zm0 0" fill="#b2cdf8"/><path d="m290.601562 417.980469v68.265625c0 7.9375-16.382812 14.675781-38.484374 16.554687-10.902344-.527343-21.582032-3.257812-31.402344-8.019531-4.4375-2.476562-6.914063-5.460938-6.914063-8.535156v-68.265625zm0 0" fill="#e7ebf4"/><path d="m316.203125 417.980469c0-9.425781-22.925781-17.066407-51.203125-17.066407-28.273438 0-51.199219 7.640626-51.199219 17.066407s22.925781 17.066406 51.199219 17.066406c28.277344 0 51.203125-7.640625 51.203125-17.066406zm0 0" fill="#b2cdf8"/><path d="m213.800781 255.847656c0 14.136719-11.460937 25.597656-25.597656 25.597656-14.140625 0-25.601563-11.460937-25.601563-25.597656 0-14.140625 11.460938-25.601562 25.601563-25.601562 14.136719 0 25.597656 11.460937 25.597656 25.601562zm0 0" fill="#fff"/><path d="m85.800781 400.914062c5.703125-.003906 11.402344.324219 17.066407.988282v-248.457032c.03125-9.414062 7.652343-17.039062 17.066406-17.066406h-25.597656c-9.414063.027344-17.039063 7.652344-17.066407 17.066406v247.722657c2.78125-.152344 5.621094-.253907 8.53125-.253907zm0 0" fill="#fff"/><path d="m41.515625 494.78125c-4.4375-2.476562-6.914063-5.460938-6.914063-8.535156v-68.265625c0-7.953125 16.332032-14.609375 38.398438-16.503907-4.09375-.359374-8.371094-.5625-12.796875-.5625-28.28125 0-51.203125 7.679688-51.203125 17.066407v68.265625c0 3.074218 2.476562 6.058594 6.914062 8.535156 9.820313 4.761719 20.5 7.492188 31.402344 8.019531 4.097656.339844 8.449219.511719 12.886719.511719s8.53125-.195312 12.507813-.535156c-10.828126-.546875-21.441407-3.265625-31.195313-7.996094zm0 0" fill="#fff"/><path d="m85.800781 153.445312v248.492188h-17.066406v-248.492188zm0 0" fill="#fff"/><g fill="#51a1ff"><path d="m77.269531 230.246094c3.464844.019531 6.601563-2.058594 7.929688-5.261719 1.328125-3.199219.589843-6.886719-1.871094-9.328125l-1.28125-1.027344c-.476563-.320312-.992187-.578125-1.535156-.765625-.484375-.246093-1-.421875-1.535157-.511719-.566406-.097656-1.136718-.152343-1.707031-.171874-2.261719.03125-4.421875.917968-6.058593 2.476562-.773438.8125-1.378907 1.769531-1.792969 2.8125-1.289063 3.183594-.585938 6.828125 1.792969 9.304688.816406.769531 1.769531 1.378906 2.816406 1.789062 1.023437.4375 2.125.671875 3.242187.683594zm0 0"/><path d="m145.535156 264.378906h.851563c1.101562 5.34375 3.222656 10.421875 6.25 14.960938l-.640625.648437c-2.21875 2.140625-3.109375 5.3125-2.328125 8.296875s3.109375 5.3125 6.09375 6.09375 6.15625-.105468 8.300781-2.324218l.636719-.648438c4.542969 3.027344 9.625 5.152344 14.96875 6.253906v.851563c0 4.714843 3.820312 8.535156 8.535156 8.535156 4.710937 0 8.53125-3.820313 8.53125-8.535156v-.851563c5.34375-1.101562 10.421875-3.222656 14.960937-6.246094l.640626.648438c3.347656 3.234375 8.667968 3.1875 11.960937-.105469 3.289063-3.289062 3.335937-8.613281.101563-11.960937l-.636719-.648438c3.027343-4.539062 5.152343-9.621094 6.253906-14.96875h.851563c4.714843 0 8.535156-3.820312 8.535156-8.53125 0-4.714844-3.820313-8.535156-8.535156-8.535156h-.851563c-1.101563-5.339844-3.21875-10.421875-6.246094-14.957031l.640625-.648438c2.21875-2.144531 3.105469-5.316406 2.324219-8.300781s-3.109375-5.3125-6.09375-6.09375-6.15625.109375-8.296875 2.328125l-.640625.648437c-4.539063-3.03125-9.621094-5.152343-14.96875-6.257812v-.851562c0-4.710938-3.820313-8.535157-8.53125-8.535157-4.714844 0-8.535156 3.824219-8.535156 8.535157v.851562c-5.339844 1.101562-10.421875 3.222656-14.957031 6.25l-.640626-.648438c-2.144531-2.21875-5.316406-3.109374-8.300781-2.328124-2.980469.78125-5.3125 3.109374-6.09375 6.09375-.78125 2.984374.109375 6.15625 2.328125 8.296874l.640625.648438c-3.03125 4.542969-5.15625 9.625-6.257812 14.96875h-.851563c-4.714844 0-8.535156 3.820312-8.535156 8.535156 0 4.710938 3.820312 8.53125 8.535156 8.53125zm42.667969-34.132812c14.136719 0 25.597656 11.460937 25.597656 25.601562 0 14.136719-11.460937 25.597656-25.597656 25.597656-14.140625 0-25.601563-11.460937-25.601563-25.597656 0-14.140625 11.460938-25.601562 25.601563-25.601562zm0 0"/><path d="m273.535156 307.046875h17.066406c9.425782 0 17.066407-7.640625 17.066407-17.066406v-17.066407c0-9.425781-7.640625-17.066406-17.066407-17.066406h-17.066406c-9.425781 0-17.066406 7.640625-17.066406 17.066406v17.066407c0 9.425781 7.640625 17.066406 17.066406 17.066406zm0-34.132813h17.066406v17.066407h-17.066406zm0 0"/><path d="m273.535156 366.78125h17.066406c9.425782 0 17.066407-7.640625 17.066407-17.066406v-17.070313c0-9.421875-7.640625-17.066406-17.066407-17.066406h-17.066406c-9.425781 0-17.066406 7.644531-17.066406 17.066406v17.070313c0 9.425781 7.640625 17.066406 17.066406 17.066406zm0-34.136719h17.066406v17.070313h-17.066406zm0 0"/><path d="m341.800781 366.78125h17.066407c9.425781 0 17.066406-7.640625 17.066406-17.066406v-17.070313c0-9.421875-7.640625-17.066406-17.066406-17.066406h-17.066407c-9.425781 0-17.066406 7.644531-17.066406 17.066406v17.070313c0 9.425781 7.640625 17.066406 17.066406 17.066406zm0-34.136719h17.066407v17.070313h-17.066407zm0 0"/><path d="m503.082031 42.511719c-.855469 0-90.257812-.511719-115.753906-38.84375-.265625-.304688-.550781-.589844-.855469-.851563-.433594-.570312-.941406-1.082031-1.507812-1.519531-.949219-.632813-2.015625-1.066406-3.132813-1.28125-1.09375-.01953125-2.183593-.01953125-3.277343 0-1.097657.214844-2.144532.640625-3.082032 1.253906-.160156.113281-.238281.285157-.390625.402344-.769531.542969-1.445312 1.210937-1.988281 1.980469-25.515625 38.347656-114.917969 38.859375-115.773438 38.859375-4.367187-.023438-8.050781 3.253906-8.53125 7.597656-1.863281 26.015625-.199218 52.167969 4.957032 77.738281h-159.410156c-14.140626 0-25.601563 11.460938-25.601563 25.597656v34.132813c0 4.714844 3.820313 8.535156 8.535156 8.535156 4.710938 0 8.53125-3.820312 8.53125-8.535156v-34.132813c0-4.710937 3.820313-8.53125 8.535157-8.53125h163.378906c1.5 5.621094 3.238281 11.308594 5.214844 17.066407h-151.527344c-4.714844 0-8.535156 3.820312-8.535156 8.53125v228.695312c-5.507813-2.160156-11.230469-3.742187-17.066407-4.71875v-138.640625c0-4.714844-3.820312-8.535156-8.53125-8.535156-4.714843 0-8.535156 3.820312-8.535156 8.535156v136.78125c-2.832031-.15625-5.683594-.25-8.53125-.25-29.730469 0-59.734375 7.917969-59.734375 25.601563v68.265625c.382812 7.007812 4.71875 13.183594 11.179688 15.921875 15.179687 7.054687 31.828124 10.371093 48.554687 9.679687 20.050781 0 40.191406-3.621094 51.199219-11.394531 11.007812 7.773437 31.144531 11.394531 51.199218 11.394531 16.6875.691406 33.296876-2.605468 48.453126-9.617187.945312-.542969 1.863281-1.132813 2.746093-1.765625 11.015625 7.761718 31.148438 11.382812 51.199219 11.382812 16.6875.691406 33.296875-2.605468 48.453125-9.617187 6.503906-2.738281 10.882813-8.9375 11.28125-15.984375v-34.132813h17.066406v17.066407c0 9.425781 7.640625 17.066406 17.066407 17.066406h51.203124c9.421876 0 17.066407-7.640625 17.066407-17.066406v-18.636719c10.191406-3.601563 17.019531-13.21875 17.066406-24.03125v-181.691407c79.707031-71.523437 67.53125-193.246093 67.410156-194.710937-.480469-4.34375-4.164062-7.621094-8.53125-7.597656zm-212.480469 173.78125v13.953125h-17.066406v-17.066406h14.8125c.71875 1.050781 1.503906 2.074218 2.253906 3.113281zm-21.042968-37.246094c2.492187 5.726563 5.230468 11.425781 8.320312 17.066406h-4.34375c-9.425781 0-17.066406 7.640625-17.066406 17.066407v17.066406c0 9.425781 7.640625 17.066406 17.066406 17.066406h17.066406c7.316407-.035156 13.796876-4.730469 16.109376-11.671875 8.042968 8.402344 16.90625 15.980469 26.453124 22.621094-5.210937 3.039062-8.421874 8.617187-8.429687 14.652343v17.066407c0 9.425781 7.640625 17.066406 17.066406 17.066406h17.066407c9.425781 0 17.066406-7.640625 17.066406-17.066406v-9.59375c.472656.179687.855468.378906 1.367187.546875.054688.003906.109375.003906.160157 0 1.773437.636718 3.710937.636718 5.480468 0 .054688.003906.109375.003906.160156 0 3.414063-1.226563 6.65625-2.558594 9.898438-3.957032v123.9375h-81.628906c-14.660156-6.15625-30.476563-9.066406-46.371094-8.535156-14.519531-.347656-28.976562 1.96875-42.664062 6.828125v-49.492187c0-17.683594-30.003907-25.601563-59.734376-25.601563-14.519531-.347656-28.980468 1.964844-42.667968 6.828125v-151.894531zm72.242187 93.867187 16.75.050782.316407.152344v16.863281h-17.066407zm-149.851562 184.320313c-.367188.085937-.660157.179687-1.085938.261719-1.335937.355468-2.6875.640625-4.050781.855468-.734375.152344-1.527344.273438-2.304688.417969-1.171874.195313-2.347656.390625-3.566406.5625-1.007812.136719-2.082031.246094-3.125.367188-2.78125.308593-5.632812.554687-8.53125.699219-2.195312.085937-4.371094.164062-6.648437.164062-25.515625 0-40.175781-6.324219-42.667969-9.292969v-14.515625c13.6875 4.859375 28.148438 7.171875 42.667969 6.824219 14.523437.328125 28.984375-2.007813 42.664062-6.886719v14.566406l-.175781.230469c-.222656.226563-.460938.433594-.710938.625-.238281.179688-.734374.476563-1.167968.757813-.230469.148437-.375.257812-.648438.417968-2.332031 1.25-4.777344 2.269532-7.304687 3.046876l-.683594.222656c-.828125.222656-1.730469.476562-2.660156.71875zm-174.414063-5.976563v-14.503906c13.6875 4.859375 28.148438 7.171875 42.667969 6.824219 14.519531.347656 28.980469-1.964844 42.664063-6.824219v14.625c-2.492188 2.945313-17.152344 9.265625-42.664063 9.265625-2.289063 0-4.472656-.074219-6.632813-.160156-1.824218-.078125-3.566406-.164063-5.316406-.316406-2.695312-.238281-5.210937-.570313-7.566406-.851563-1.621094-.230468-3.226562-.539062-5.011719-.90625-1.246093-.210937-2.5-.484375-4.351562-.972656-1.320313-.289062-2.625-.664062-3.898438-1.117188-2.484375-.765624-4.886719-1.765624-7.175781-2.988281-1.015625-.53125-1.933594-1.230469-2.714844-2.074219zm145.066406-75.945312c14.519532.347656 28.980469-1.964844 42.667969-6.824219v14.503907l-.179687.230468c-.210938.222656-.4375.429688-.675782.625-.238281.179688-.734374.476563-1.167968.757813-.230469.144531-.375.257812-.648438.417969-2.332031 1.25-4.777344 2.269531-7.304687 3.046874l-.683594.222657c-.851563.253906-1.765625.511719-2.695313.75-.367187.085937-.65625.179687-1.085937.265625-1.332031.355468-2.6875.640625-4.050781.851562-.734375.15625-1.527344.273438-2.304688.417969-1.167968.199219-2.347656.394531-3.566406.5625-1.007812.136719-2.082031.25-3.125.367187-2.78125.308594-5.628906.554688-8.53125.703126-2.195312.082031-4.371094.160156-6.648438.160156-25.515624 0-40.175781-6.324219-42.667968-9.292969v-14.589844c13.6875 4.859375 28.148437 7.171875 42.667968 6.824219zm-41.890624-25.597656c4.011718-3.160156 18.304687-8.535156 41.890624-8.535156 23.585938 0 37.878907 5.375 41.890626 8.535156-4.011719 3.15625-18.304688 8.53125-41.890626 8.53125-23.585937 0-37.878906-5.375-41.890624-8.53125zm186.179687 68.265625c-4.007813 3.15625-18.304687 8.53125-41.890625 8.53125s-37.878906-5.375-41.886719-8.53125c4.007813-3.15625 18.300781-8.535157 41.886719-8.535157s37.882812 5.378907 41.890625 8.535157zm-186.957031-15.359375c13.6875 4.859375 28.148437 7.171875 42.667968 6.824218 2.96875 0 5.871094-.101562 8.738282-.261718 1.597656-.070313 3.183594-.136719 4.746094-.285156.304687 0 .578124-.074219.851562-.101563 2.414062-.222656 4.777344-.492187 7.074219-.851563l.511719-.058593c1.707031-.242188 3.277343-.546875 4.640624-.855469l2.074219-.402344c1.28125-.246094 2.484375-.519531 3.414063-.773437 1.832031-.449219 3.59375-.9375 5.28125-1.460938.230468-.078125.496094-.128906.726562-.203125l.222656-.085937c1.542969-.496094 2.996094-1.042969 4.386719-1.605469v14.660156c-.78125.765625-1.671875 1.40625-2.644531 1.902344-12.609375 5.464844-26.292969 8.011719-40.023438 7.449219-25.515624 0-40.175781-6.320313-42.667968-9.292969zm102.402344 48.757812v-14.625c13.6875 4.859375 28.144531 7.171875 42.664062 6.824219 14.519531.347656 28.980469-1.964844 42.667969-6.824219v14.503906c-.074219.085938-.144531.179688-.203125.273438-.726563.671875-1.535156 1.246094-2.40625 1.707031-2.339844 1.257813-4.792969 2.285157-7.332032 3.066407-1.457031.507812-2.949218.921874-4.460937 1.234374-1.335937.355469-2.691406.640626-4.054687.855469-1.46875.304688-3.070313.613281-4.609376.851563-2.4375.324218-4.957031.65625-7.679687.898437-1.707031.152344-3.480469.238281-5.265625.304688-2.199219.09375-4.382812.171875-6.671875.171875-25.496094.023437-40.15625-6.296875-42.648437-9.265625zm-162.132813-41.933594c23.585937 0 37.878906 5.378907 41.890625 8.535157-4.011719 3.15625-18.304688 8.53125-41.890625 8.53125s-37.882813-5.375-41.890625-8.53125c4.007812-3.15625 18.304688-8.535157 41.890625-8.535157zm-40.109375 77.886719c-.941406-.484375-1.804688-1.105469-2.558594-1.84375v-14.6875c1.449219.589844 2.925782 1.167969 4.558594 1.707031 1.726562.601563 3.484375 1.101563 5.273438 1.492188 1.699218.472656 3.421874.859375 5.160156 1.152344 1.785156.375 3.753906.75 5.8125 1.042968 2.671875.355469 5.433594.714844 8.371094.980469 2.023437.1875 4.035156.28125 6.167968.367188 2.417969.09375 4.824219.179687 7.324219.179687 14.519531.347656 28.980469-1.96875 42.664063-6.828125v14.625c-2.492188 2.9375-17.152344 9.261719-42.664063 9.261719-13.761719.578125-27.472656-1.96875-40.109375-7.449219zm142.507812 7.449219c-25.515624 0-40.175781-6.324219-42.667968-9.292969v-14.601562c13.6875 4.859375 28.148437 7.171875 42.667968 6.828125 2.96875 0 5.871094-.105469 8.738282-.265625 1.597656-.070313 3.183594-.136719 4.746094-.28125.304687 0 .578124-.078125.851562-.101563 2.414062-.222656 4.777344-.496094 7.074219-.855468l.511719-.058594c1.707031-.238282 3.277343-.546875 4.640624-.855469l2.074219-.398437c1.28125-.25 2.484375-.523438 3.414063-.777344 1.832031-.449219 3.59375-.9375 5.28125-1.460938.230468-.074218.496094-.125.726562-.203125l.222656-.085937c1.542969-.496094 2.996094-1.039063 4.386719-1.605469v14.660156c-.78125.765625-1.671875 1.40625-2.644531 1.90625-12.609375 5.464844-26.292969 8.011719-40.023438 7.449219zm102.398438 0c-25.511719 0-40.171875-6.324219-42.664062-9.292969v-14.601562c13.6875 4.859375 28.144531 7.171875 42.664062 6.828125 2.503906 0 4.910156-.085938 7.367188-.179688 2.089843-.085937 4.101562-.179687 6.117187-.367187 2.945313-.265625 5.707031-.625 8.464844-.992188 1.972656-.28125 3.941406-.65625 5.410156-.964843 1.640625-.269532 3.261719-.628907 4.863281-1.074219 1.976563-.421875 3.925782-.964844 5.835938-1.621094 1.65625-.535156 3.140625-1.125 4.609375-1.707031v14.6875c-.78125.761718-1.671875 1.40625-2.644531 1.902344-12.613282 5.441406-26.296876 7.964843-40.023438 7.382812zm93.867188-25.601562v-17.066407h51.203124v17.066407zm68.269531-42.667969c0 4.714843-3.820313 8.535156-8.535157 8.535156h-93.867187v-17.066406h76.800781c4.710938 0 8.535156-3.820313 8.535156-8.535157v-140.59375c5.878907-3.195312 11.574219-6.71875 17.066407-10.546874zm59.296875-285.414063c-8.632813 36.488282-28.472656 69.359375-56.738282 93.996094l-.078124.058594c-9.621094 8.078125-20.136719 15.019531-31.34375 20.695312l-.21875.117188c-5.808594 2.917968-11.769532 5.523437-17.851563 7.808594-5.503906-2.089844-10.839844-4.367188-15.957031-6.878907l-.367188-.167969c-22.691406-11.039062-42.453125-27.28125-57.679687-47.402343-.191407-.296875-.402344-.582031-.628907-.855469-1.707031-2.320312-3.414062-4.667969-5.054687-7.097656-.277344-.578125-.625-1.117188-1.03125-1.613282-11.566406-18.0625-20.179687-37.851562-25.515625-58.625-6.925781-26.660156-9.851562-54.203124-8.683594-81.722656 22.339844-.984375 84.957032-6.570312 114.917969-37.648437 29.960937 31.078125 92.578125 36.691406 114.917969 37.648437 1.160156 27.507813-1.765625 55.039063-8.6875 81.6875zm0 0"/></g></svg>