<?xml version="1.0" encoding="UTF-8" standalone="no"?>
<!DOCTYPE svg PUBLIC "-//W3C//DTD SVG 1.1//EN" "http://www.w3.org/Graphics/SVG/1.1/DTD/svg11.dtd">
<svg version="1.1" xmlns="http://www.w3.org/2000/svg" xmlns:xlink="http://www.w3.org/1999/xlink" preserveAspectRatio="xMidYMid meet" viewBox="0 0 640 640" width="640" height="640"><defs><path d="M340.09 520.5C451.03 520.5 540.97 430.77 540.97 320.08C540.97 209.39 451.03 119.66 340.09 119.66" id="a1DTtiEj7A"></path><path d="M299.91 119.66C188.97 119.66 99.03 209.39 99.03 320.08C99.03 430.77 188.97 520.5 299.91 520.5" id="a4dYk3TvHm"></path><path d="M502.97 400.25L472.84 400.25L452.75 420.29L412.58 420.29L412.58 450.36L392.49 470.4L362.36 470.4L342.27 490.44C342.27 508.48 342.27 518.5 342.27 520.5C418.4 520.5 484.63 478.23 518.7 415.94C516.6 413.85 511.36 408.62 502.97 400.25Z" id="c1TjevhZaL"></path><path d="M219.56 400.25C182.55 437.18 161.98 457.7 157.87 461.8C166.28 470.19 175.5 477.74 185.29 484.55C186.9 482.94 194.98 474.88 209.52 460.38L239.65 460.38L259.74 440.33L259.74 420.29L239.65 400.25L219.56 400.25Z" id="a5zina0HYH"></path><path d="M516.52 225.85C495.24 186.94 461.38 155.94 420.44 138.07C420.44 140.96 420.44 155.41 420.44 181.41L440.53 201.45L440.53 231.52L460.62 251.56L490.75 251.56C504.49 237.85 513.09 229.27 516.52 225.85Z" id="lBTpEiFnx"></path><path d="M149.25 219.87L179.38 219.87L209.52 189.8L249.69 189.8L269.78 169.76L299.91 169.76C299.91 139.7 299.91 123 299.91 119.66C231.61 119.66 171.36 153.74 135.07 205.72C136.96 207.6 141.69 212.32 149.25 219.87Z" id="a2D0WACIA8"></path><path d="M340.09 510.48C445.32 510.48 530.92 425.07 530.92 320.08C530.92 215.09 445.32 129.68 340.09 129.68C340.09 127.67 340.09 111.64 340.09 109.63C456.4 109.63 551.01 204.03 551.01 320.08C551.01 436.13 456.4 530.53 340.09 530.53C340.09 526.52 340.09 512.49 340.09 510.48Z" id="eiPCw2ld1"></path><path d="M299.91 530.53C183.6 530.53 88.99 436.13 88.99 320.08C88.99 204.03 183.6 109.63 299.91 109.63C299.91 111.64 299.91 127.67 299.91 129.68C194.68 129.68 109.08 215.09 109.08 320.08C109.08 425.07 194.68 510.48 299.91 510.48C299.91 514.49 299.91 526.52 299.91 530.53Z" id="a1xL5gPOmm"></path><path d="M347.19 497.53L332.99 483.36C345.04 471.33 351.74 464.65 353.08 463.31C354.95 461.43 357.51 460.38 360.18 460.38C361.91 460.38 370.57 460.38 386.15 460.38L400.35 446.21C400.35 430.66 400.35 422.02 400.35 420.29C400.35 414.76 404.85 410.27 410.4 410.27C412.8 410.27 424.8 410.27 446.41 410.27C456.7 400.01 462.42 394.31 463.56 393.16C465.44 391.28 468 390.23 470.66 390.23C473.67 390.23 497.78 390.23 500.79 390.23C503.45 390.23 506.02 391.28 507.89 393.16C509.23 394.5 515.93 401.18 527.98 413.21L513.78 427.38L496.63 410.27L474.82 410.27C464.53 420.53 458.82 426.24 457.67 427.38C455.8 429.26 453.23 430.31 450.57 430.31C448.56 430.31 438.52 430.31 420.44 430.31C420.44 442.34 420.44 449.02 420.44 450.36C420.44 453.01 419.39 455.57 417.5 457.44C415.49 459.45 399.42 475.48 397.41 477.48C395.53 479.37 392.97 480.42 390.31 480.42C388.58 480.42 379.92 480.42 364.33 480.42L347.19 497.53Z" id="hSqbUHaD0"></path><path d="M196.53 487.5L182.33 473.33C194.38 461.31 201.08 454.63 202.41 453.29C204.29 451.41 206.85 450.36 209.52 450.36C211.25 450.36 219.91 450.36 235.49 450.36L249.69 436.19L249.69 424.44L235.49 410.27L223.72 410.27L166.4 467.46L152.19 453.29C188.35 417.22 208.44 397.17 212.46 393.16C214.34 391.28 216.9 390.23 219.56 390.23C221.57 390.23 237.64 390.23 239.65 390.23C242.31 390.23 244.87 391.28 246.75 393.16C248.76 395.17 264.83 411.2 266.84 413.21C268.73 415.08 269.78 417.64 269.78 420.29C269.78 422.3 269.78 438.33 269.78 440.33C269.78 442.99 268.73 445.55 266.84 447.42C264.83 449.42 248.76 465.46 246.75 467.46C244.87 469.35 242.31 470.4 239.65 470.4C237.92 470.4 229.26 470.4 213.67 470.4L196.53 487.5Z" id="d7xRgNOkl"></path><path d="M149.25 229.89C146.59 229.89 144.03 228.84 142.15 226.95C140.81 225.62 134.11 218.94 122.06 206.91L136.26 192.74L153.41 209.85L175.23 209.85C191.54 193.57 200.6 184.53 202.41 182.72C204.29 180.84 206.85 179.78 209.52 179.78C211.92 179.78 223.92 179.78 245.53 179.78C255.82 169.52 261.54 163.82 262.68 162.68C264.56 160.79 267.12 159.74 269.78 159.74C271.79 159.74 281.83 159.74 299.91 159.74L299.91 179.78L273.94 179.78C263.65 190.05 257.94 195.75 256.79 196.89C254.91 198.77 252.35 199.83 249.69 199.83C247.29 199.83 235.28 199.83 213.67 199.83C197.36 216.1 188.3 225.14 186.48 226.95C184.61 228.84 182.05 229.89 179.38 229.89C173.36 229.89 152.26 229.89 149.25 229.89Z" id="b1KTKuGNlF"></path><path d="M460.62 259.95C457.95 259.95 455.39 258.9 453.52 257.02C451.51 255.01 435.44 238.98 433.43 236.97C431.54 235.1 430.48 232.54 430.48 229.89C430.48 228.16 430.48 219.52 430.48 203.97C420.2 193.71 414.48 188.01 413.34 186.87C411.45 184.99 410.4 182.44 410.4 179.78C410.4 177.11 410.4 163.75 410.4 139.7L430.48 139.7L430.48 175.63C440.77 185.9 446.49 191.6 447.63 192.74C449.52 194.61 450.57 197.17 450.57 199.83C450.57 201.55 450.57 210.19 450.57 225.74L464.77 239.91L486.59 239.91L513.78 212.78L527.98 226.95C509.9 244.99 499.86 255.01 497.85 257.02C495.97 258.9 493.41 259.95 490.75 259.95C484.72 259.95 463.63 259.95 460.62 259.95Z" id="d6Lkb1tgU"></path><path d="M309.94 630.58C303.02 630.36 296.03 629.91 289.19 629.23C289.39 627.24 290.96 611.29 291.15 609.29C297.57 609.91 304.05 610.33 310.58 610.54C310.45 614.55 310.06 626.57 309.94 630.58ZM330.04 610.52C336.5 610.31 343.03 609.87 349.46 609.23C349.66 611.23 351.27 627.18 351.47 629.17C344.6 629.87 337.61 630.33 330.71 630.56C330.57 626.55 330.11 612.53 330.04 610.52ZM268.57 626.52C261.78 625.4 254.92 624.02 248.19 622.44C248.65 620.49 252.33 604.89 252.8 602.94C259.09 604.41 265.51 605.7 271.86 606.76C271.2 610.71 269.23 622.57 268.57 626.52ZM368.75 606.64C375.09 605.58 381.5 604.28 387.8 602.78C388.26 604.73 391.99 620.32 392.46 622.27C385.71 623.88 378.85 625.28 372.07 626.41C371.41 622.45 369.09 608.61 368.75 606.64ZM228.13 616.99C221.52 614.95 214.89 612.67 208.43 610.19C209.15 608.32 214.91 593.36 215.63 591.48C221.68 593.8 227.87 595.93 234.04 597.84C232.86 601.67 229.31 613.16 228.13 616.99ZM406.55 597.65C412.73 595.73 418.9 593.58 424.92 591.26C425.64 593.13 431.44 608.09 432.16 609.96C425.73 612.44 419.12 614.73 412.53 616.78C411.33 612.95 407.15 599.56 406.55 597.65ZM189.24 602.1C183.01 599.22 176.76 596.07 170.66 592.75C171.62 590.99 179.32 576.92 180.29 575.16C186 578.28 191.85 581.22 197.67 583.92C195.99 587.55 190.92 598.46 189.24 602.1ZM442.81 583.69C448.6 581 454.43 578.06 460.13 574.92C461.1 576.68 468.85 590.73 469.82 592.49C463.71 595.82 457.47 598.98 451.28 601.86C449.58 598.22 443.66 585.5 442.81 583.69ZM152.75 582.15C146.93 578.46 141.17 574.51 135.58 570.41C136.77 568.8 146.31 555.89 147.5 554.28C152.72 558.11 158.12 561.8 163.55 565.26C161.39 568.64 154.91 578.78 152.75 582.15ZM476.85 565.01C482.31 561.51 487.66 557.84 492.87 554.01C494.06 555.62 503.61 568.51 504.8 570.12C499.26 574.21 493.49 578.17 487.69 581.88C485.52 578.51 477.93 566.7 476.85 565.01ZM119.26 557.56C113.98 553.11 108.78 548.43 103.82 543.65C105.22 542.21 116.38 530.68 117.77 529.24C122.4 533.7 127.26 538.08 132.22 542.25C129.63 545.31 121.85 554.5 119.26 557.56ZM508.12 541.96C513.08 537.78 517.89 533.43 522.55 528.93C523.95 530.37 535.12 541.9 536.52 543.34C531.55 548.12 526.36 552.8 521.1 557.25C518.51 554.19 509.42 543.49 508.12 541.96ZM89.34 528.75C84.71 523.65 80.18 518.33 75.89 512.94C77.46 511.69 90.05 501.74 91.63 500.49C95.66 505.56 99.85 510.49 104.21 515.29C101.24 517.98 92.31 526.06 89.34 528.75ZM536.08 514.97C540.44 510.17 544.62 505.22 548.64 500.15C550.22 501.39 562.83 511.33 564.4 512.58C560.12 517.98 555.6 523.3 550.97 528.42C547.99 525.73 537.57 516.32 536.08 514.97ZM63.53 496.27C59.61 490.6 55.83 484.74 52.31 478.83C54.03 477.8 67.84 469.59 69.56 468.56C72.89 474.14 76.39 479.58 80.07 484.89C76.76 487.17 66.83 494 63.53 496.27ZM560.2 484.52C563.87 479.19 567.37 473.73 570.69 468.14C572.42 469.17 586.24 477.35 587.96 478.38C584.45 484.3 580.67 490.18 576.76 495.86C573.45 493.59 561.86 485.65 560.2 484.52ZM42.27 460.66C39.13 454.48 36.17 448.16 33.48 441.87C35.33 441.08 50.13 434.81 51.97 434.02C54.49 439.9 57.24 445.81 60.18 451.57C56.6 453.39 45.85 458.84 42.27 460.66ZM580.06 451.13C582.99 445.34 585.76 439.41 588.27 433.5C590.12 434.28 604.91 440.54 606.76 441.33C604.08 447.64 601.12 453.98 597.99 460.17C594.4 458.36 581.85 452.03 580.06 451.13ZM25.97 422.56C23.68 416.01 21.6 409.35 19.78 402.75C21.72 402.21 37.22 397.96 39.16 397.43C40.86 403.61 42.8 409.84 44.94 415.95C41.15 417.27 29.77 421.24 25.97 422.56ZM595.26 415.35C597.37 409.29 599.3 403.05 601.01 396.82C602.95 397.35 618.46 401.58 620.4 402.1C618.58 408.77 616.5 415.44 614.24 421.93C610.44 420.61 597.16 416.01 595.26 415.35ZM14.93 382.55C13.56 375.81 12.39 368.92 11.46 362.1C13.45 361.83 29.37 359.68 31.36 359.41C32.23 365.8 33.31 372.23 34.61 378.54C30.67 379.35 18.87 381.75 14.93 382.55ZM605.5 377.93C606.78 371.63 607.85 365.24 608.72 358.78C610.71 359.05 626.63 361.17 628.62 361.44C627.71 368.3 626.55 375.19 625.2 381.9C621.26 381.11 607.47 378.33 605.5 377.93ZM9.36 341.47C8.9 334.64 8.64 327.67 8.63 320.74C10.64 320.74 26.71 320.69 28.72 320.68C28.74 327.21 28.96 333.68 29.41 340.1C25.4 340.38 13.37 341.19 9.36 341.47ZM610.63 339.48C611.07 333.07 611.28 326.59 611.28 320.08C611.28 320 611.28 319.58 611.28 318.82L631.37 318.82C631.37 319.58 631.37 320 631.37 320.08C631.37 327.01 631.13 333.99 630.68 340.81C626.67 340.55 612.64 339.61 610.63 339.48ZM9.28 300.01C9.72 293.11 10.4 286.17 11.3 279.35C13.29 279.62 29.22 281.71 31.21 281.97C30.38 288.33 29.74 294.83 29.33 301.29C25.32 301.03 11.28 300.14 9.28 300.01ZM610.55 299.46C610.09 292.95 609.43 286.51 608.55 280.15C610.53 279.87 626.45 277.69 628.44 277.42C629.38 284.19 630.1 291.14 630.58 298.05C626.58 298.33 614.56 299.18 610.55 299.46ZM14.67 258.88C16.03 252.11 17.62 245.31 19.42 238.68C21.36 239.2 36.88 243.39 38.82 243.92C37.14 250.12 35.64 256.48 34.37 262.81C30.43 262.02 16.64 259.27 14.67 258.88ZM605.25 261.01C603.95 254.7 602.41 248.36 600.68 242.15C602.62 241.61 618.1 237.32 620.04 236.78C621.88 243.43 623.53 250.21 624.93 256.96C620.99 257.77 609.19 260.2 605.25 261.01ZM25.54 218.86C27.79 212.34 30.29 205.81 32.98 199.44C34.83 200.22 49.64 206.44 51.49 207.22C48.98 213.17 46.64 219.28 44.53 225.38C40.73 224.08 27.44 219.51 25.54 218.86ZM594.86 223.64C592.73 217.59 590.36 211.53 587.8 205.59C589.65 204.8 604.42 198.48 606.27 197.69C609 204.04 611.53 210.54 613.81 216.99C610.02 218.32 598.65 222.31 594.86 223.64ZM41.73 180.59C44.81 174.46 48.17 168.33 51.7 162.37C53.43 163.38 67.28 171.53 69.01 172.55C65.7 178.1 62.59 183.78 59.67 189.59C56.08 187.79 43.52 181.49 41.73 180.59ZM579.54 188.03C576.63 182.34 573.46 176.63 570.13 171.07C571.85 170.05 585.64 161.81 587.36 160.78C590.93 166.73 594.31 172.83 597.44 178.93C593.86 180.75 583.12 186.21 579.54 188.03ZM62.88 144.83C66.79 139.14 70.93 133.51 75.2 128.1C76.77 129.34 89.4 139.26 90.98 140.5C86.98 145.55 83.11 150.82 79.46 156.15C76.14 153.89 64.54 145.96 62.88 144.83ZM559.59 154.77C555.89 149.45 552.03 144.25 547.99 139.2C549.56 137.95 562.13 127.96 563.7 126.71C567.99 132.08 572.16 137.68 576.09 143.36C572.79 145.64 562.89 152.49 559.59 154.77ZM88.59 112.22C93.18 107.15 98.02 102.12 103 97.28C104.4 98.71 115.62 110.2 117.02 111.64C112.37 116.16 107.86 120.83 103.52 125.64C100.53 122.96 90.08 113.56 88.59 112.22ZM535.37 124.42C531.02 119.65 526.45 114.97 521.79 110.51C523.19 109.06 534.32 97.5 535.72 96.06C540.69 100.82 545.56 105.82 550.22 110.92C547.25 113.62 538.34 121.72 535.37 124.42ZM118.4 83.33C123.63 78.88 129.11 74.54 134.68 70.42C135.87 72.03 145.44 84.91 146.64 86.52C141.44 90.37 136.31 94.43 131.41 98.59C128.81 95.54 119.7 84.86 118.4 83.33ZM507.32 97.53C502.36 93.36 497.26 89.36 492.01 85.53C493.2 83.92 502.71 70.99 503.9 69.37C509.46 73.44 514.96 77.76 520.26 82.19C517.67 85.26 509.91 94.46 507.32 97.53ZM151.76 58.64C157.57 54.91 163.57 51.33 169.61 48C170.58 49.76 178.35 63.8 179.32 65.55C173.68 68.66 168.06 72.01 162.64 75.48C160.46 72.11 152.85 60.32 151.76 58.64ZM475.93 74.57C470.48 71.11 464.85 67.8 459.16 64.72C460.12 62.96 467.8 48.87 468.76 47.11C474.83 50.41 480.88 53.96 486.7 57.65C484.55 61.04 478.09 71.19 475.93 74.57ZM188.13 38.58C194.4 35.66 200.82 32.92 207.24 30.44C207.96 32.31 213.78 47.25 214.51 49.12C208.51 51.43 202.5 54 196.65 56.73C194.95 53.1 188.98 40.4 188.13 38.58ZM441.76 55.99C435.89 53.3 429.89 50.77 423.81 48.46C424.52 46.58 430.25 31.61 430.97 29.74C437.37 32.17 443.83 34.89 450.15 37.78C448.47 41.42 443.44 52.35 441.76 55.99ZM226.85 23.56C233.45 21.5 240.19 19.63 246.91 18.03C247.38 19.98 251.13 35.56 251.6 37.51C245.33 39.03 239.02 40.76 232.86 42.68C231.66 38.86 227.45 25.47 226.85 23.56ZM405.38 42.15C399.17 40.26 392.85 38.55 386.6 37.1C387.06 35.15 390.72 19.54 391.17 17.59C397.86 19.15 404.61 20.97 411.25 22.99C410.08 26.82 406.56 38.32 405.38 42.15ZM267.27 13.86C274.05 12.71 280.99 11.77 287.87 11.07C288.07 13.06 289.71 29.01 289.92 31C283.48 31.66 277 32.54 270.65 33.62C269.98 29.67 267.61 15.84 267.27 13.86ZM367.53 33.31C361.16 32.27 354.72 31.43 348.23 30.81C348.43 28.81 349.96 12.85 350.15 10.86C357.02 11.52 363.96 12.42 370.77 13.53C370.12 17.49 368.18 29.36 367.53 33.31ZM308.62 9.62C312.41 9.49 316.21 9.42 320.01 9.42C323.14 9.42 326.29 9.46 329.42 9.56C329.36 11.57 328.86 27.59 328.8 29.6C325.76 29.51 322.8 29.48 319.64 29.47C316.19 29.47 312.76 29.53 309.34 29.66C309.2 25.65 308.69 11.63 308.62 9.62Z" id="a1oUx9uZKa"></path><path d="M330.04 69.55L350.13 69.55L350.13 570.61L330.04 570.61L330.04 69.55Z" id="a5bapSnl5p"></path><path d="M289.87 69.55L309.96 69.55L309.96 570.61L289.87 570.61L289.87 69.55Z" id="c7aWY4EUH"></path><path d="M320 590.65C170.46 590.65 48.81 469.28 48.81 320.08C50.82 320.08 66.89 320.08 68.9 320.08C68.9 458.22 181.54 570.61 320 570.61C320 574.62 320 586.64 320 590.65Z" id="fK2oek5w7"></path><path d="M571.1 320.08C571.1 181.94 458.46 69.55 320 69.55C320 67.55 320 51.51 320 49.51C469.54 49.51 591.19 170.88 591.19 320.08C587.17 320.08 573.11 320.08 571.1 320.08Z" id="a24TeEBYNJ"></path></defs><g><g><g><use xlink:href="#a1DTtiEj7A" opacity="1" fill="#80d8ff" fill-opacity="1"></use><g><use xlink:href="#a1DTtiEj7A" opacity="1" fill-opacity="0" stroke="#000000" stroke-width="1" stroke-opacity="0"></use></g></g><g><use xlink:href="#a4dYk3TvHm" opacity="1" fill="#80d8ff" fill-opacity="1"></use><g><use xlink:href="#a4dYk3TvHm" opacity="1" fill-opacity="0" stroke="#000000" stroke-width="1" stroke-opacity="0"></use></g></g><g><use xlink:href="#c1TjevhZaL" opacity="1" fill="#00e17b" fill-opacity="1"></use><g><use xlink:href="#c1TjevhZaL" opacity="1" fill-opacity="0" stroke="#000000" stroke-width="1" stroke-opacity="0"></use></g></g><g><use xlink:href="#a5zina0HYH" opacity="1" fill="#00e17b" fill-opacity="1"></use><g><use xlink:href="#a5zina0HYH" opacity="1" fill-opacity="0" stroke="#000000" stroke-width="1" stroke-opacity="0"></use></g></g><g><use xlink:href="#lBTpEiFnx" opacity="1" fill="#00e17b" fill-opacity="1"></use><g><use xlink:href="#lBTpEiFnx" opacity="1" fill-opacity="0" stroke="#000000" stroke-width="1" stroke-opacity="0"></use></g></g><g><use xlink:href="#a2D0WACIA8" opacity="1" fill="#00e17b" fill-opacity="1"></use><g><use xlink:href="#a2D0WACIA8" opacity="1" fill-opacity="0" stroke="#000000" stroke-width="1" stroke-opacity="0"></use></g></g><g><use xlink:href="#eiPCw2ld1" opacity="1" fill="#000000" fill-opacity="1"></use><g><use xlink:href="#eiPCw2ld1" opacity="1" fill-opacity="0" stroke="#000000" stroke-width="1" stroke-opacity="0"></use></g></g><g><use xlink:href="#a1xL5gPOmm" opacity="1" fill="#000000" fill-opacity="1"></use><g><use xlink:href="#a1xL5gPOmm" opacity="1" fill-opacity="0" stroke="#000000" stroke-width="1" stroke-opacity="0"></use></g></g><g><use xlink:href="#hSqbUHaD0" opacity="1" fill="#000000" fill-opacity="1"></use><g><use xlink:href="#hSqbUHaD0" opacity="1" fill-opacity="0" stroke="#000000" stroke-width="1" stroke-opacity="0"></use></g></g><g><use xlink:href="#d7xRgNOkl" opacity="1" fill="#000000" fill-opacity="1"></use><g><use xlink:href="#d7xRgNOkl" opacity="1" fill-opacity="0" stroke="#000000" stroke-width="1" stroke-opacity="0"></use></g></g><g><use xlink:href="#b1KTKuGNlF" opacity="1" fill="#000000" fill-opacity="1"></use><g><use xlink:href="#b1KTKuGNlF" opacity="1" fill-opacity="0" stroke="#000000" stroke-width="1" stroke-opacity="0"></use></g></g><g><use xlink:href="#d6Lkb1tgU" opacity="1" fill="#000000" fill-opacity="1"></use><g><use xlink:href="#d6Lkb1tgU" opacity="1" fill-opacity="0" stroke="#000000" stroke-width="1" stroke-opacity="0"></use></g></g><g><use xlink:href="#a1oUx9uZKa" opacity="1" fill="#000000" fill-opacity="1"></use><g><use xlink:href="#a1oUx9uZKa" opacity="1" fill-opacity="0" stroke="#000000" stroke-width="1" stroke-opacity="0"></use></g></g><g><use xlink:href="#a5bapSnl5p" opacity="1" fill="#000000" fill-opacity="1"></use><g><use xlink:href="#a5bapSnl5p" opacity="1" fill-opacity="0" stroke="#000000" stroke-width="1" stroke-opacity="0"></use></g></g><g><use xlink:href="#c7aWY4EUH" opacity="1" fill="#000000" fill-opacity="1"></use><g><use xlink:href="#c7aWY4EUH" opacity="1" fill-opacity="0" stroke="#000000" stroke-width="1" stroke-opacity="0"></use></g></g><g><use xlink:href="#fK2oek5w7" opacity="1" fill="#000000" fill-opacity="1"></use><g><use xlink:href="#fK2oek5w7" opacity="1" fill-opacity="0" stroke="#000000" stroke-width="1" stroke-opacity="0"></use></g></g><g><use xlink:href="#a24TeEBYNJ" opacity="1" fill="#000000" fill-opacity="1"></use><g><use xlink:href="#a24TeEBYNJ" opacity="1" fill-opacity="0" stroke="#000000" stroke-width="1" stroke-opacity="0"></use></g></g></g></g></svg>