<svg id="Capa_1" enable-background="new 0 0 512 512" height="512" viewBox="0 0 512 512" width="512" xmlns="http://www.w3.org/2000/svg"><g><circle cx="256" cy="256" fill="#ffe179" r="192"/><path d="m256 64c-5.048 0-10.05.198-15 .58 99.028 7.653 177 90.429 177 191.42s-77.972 183.767-177 191.42c4.95.383 9.952.58 15 .58 106.039 0 192-85.961 192-192s-85.961-192-192-192z" fill="#fbd268"/><circle cx="256" cy="256" fill="#fff8bf" r="148.354"/><path d="m256 107.646c-5.063 0-10.067.256-15 .751 74.889 7.52 133.354 70.733 133.354 147.603s-58.465 140.083-133.354 147.603c4.933.495 9.937.751 15 .751 81.933 0 148.354-66.42 148.354-148.354s-66.421-148.354-148.354-148.354z" fill="#fcea9d"/><g><g><path d="m463.74 223.803c-2.929-2.929-2.929-7.678 0-10.606l19.333-19.333c2.929-2.929 7.678-2.929 10.606 0 2.929 2.929 2.929 7.678 0 10.606l-19.333 19.333c-2.929 2.929-7.677 2.929-10.606 0z" fill="#ffe179"/></g><g><path d="m483.073 318.136-19.333-19.333c-2.929-2.929-2.929-7.678 0-10.606 2.929-2.929 7.678-2.929 10.606 0l19.333 19.333c2.929 2.929 2.929 7.678 0 10.606-2.929 2.929-7.677 2.929-10.606 0z" fill="#ffe179"/></g><g><path d="m504.5 264.165h-29.098c-4.142 0-7.5-3.358-7.5-7.5s3.358-7.5 7.5-7.5h29.098c4.142 0 7.5 3.358 7.5 7.5s-3.358 7.5-7.5 7.5z" fill="#ffe179"/></g></g><g><g><path d="m37.654 223.803-19.333-19.333c-2.929-2.929-2.929-7.678 0-10.606 2.929-2.929 7.678-2.929 10.606 0l19.333 19.333c2.929 2.929 2.929 7.678 0 10.606-2.929 2.929-7.677 2.929-10.606 0z" fill="#ffe179"/></g><g><path d="m18.321 318.136c-2.929-2.929-2.929-7.678 0-10.606l19.333-19.333c2.929-2.929 7.678-2.929 10.606 0 2.929 2.929 2.929 7.678 0 10.606l-19.333 19.333c-2.929 2.929-7.677 2.929-10.606 0z" fill="#ffe179"/></g><g><path d="m36.598 264.165h-29.098c-4.142 0-7.5-3.358-7.5-7.5s3.358-7.5 7.5-7.5h29.098c4.142 0 7.5 3.358 7.5 7.5s-3.358 7.5-7.5 7.5z" fill="#ffe179"/></g></g><g fill="#fbd268"><path d="m351.587 318.773c-4.142 0-7.5 3.358-7.5 7.5v3.276c0 5.287-4.302 9.589-9.589 9.589-5.288 0-9.589-4.302-9.589-9.589v-134.188c0-20.677-16.822-37.5-37.5-37.5s-37.5 16.822-37.5 37.5c0 4.142 3.358 7.5 7.5 7.5s7.5-3.358 7.5-7.5c0-12.406 10.093-22.5 22.5-22.5s22.5 10.093 22.5 22.5v134.189c0 13.559 11.031 24.589 24.589 24.589s24.589-11.03 24.589-24.589v-3.276c0-4.143-3.358-7.501-7.5-7.501z"/><path d="m291.587 318.773c-4.142 0-7.5 3.358-7.5 7.5v3.276c0 5.287-4.302 9.589-9.589 9.589-5.288 0-9.589-4.302-9.589-9.589v-106.331c0-4.142-3.358-7.5-7.5-7.5s-7.5 3.358-7.5 7.5v59.756l-38.465-38.283c8.525-8.892 22.671-25.596 22.671-38.526 0-18.363-14.94-33.303-33.304-33.303-18.363 0-33.303 14.94-33.303 33.303 0 13.121 14.565 30.126 23.043 38.913l-35.805 41.314c-2.713 3.13-2.375 7.867.755 10.58 3.118 2.702 7.857 2.385 10.58-.755l35.135-40.541 19.757 19.663-30.862 41.289c-2.48 3.318-1.801 8.018 1.517 10.498 3.292 2.46 8.001 1.823 10.498-1.517l29.586-39.582 18.197 18.111v25.413c0 13.559 11.031 24.589 24.589 24.589s24.589-11.03 24.589-24.589v-3.276c0-4.144-3.358-7.502-7.5-7.502zm-90.776-130.912c10.093 0 18.304 8.211 18.304 18.303 0 6.21-9.626 18.739-18.304 27.915-8.678-9.176-18.303-21.704-18.303-27.915 0-10.092 8.211-18.303 18.303-18.303z"/></g></g></svg>